<?xml version="1.0" encoding="UTF-8" standalone="no"?>
<!-- Created with Inkscape (http://www.inkscape.org/) -->

<svg
   width="225mm"
   height="125mm"
   viewBox="0 0 225 125"
   version="1.1"
   id="svg1"
   xml:space="preserve"
   inkscape:version="1.3.2 (091e20e, 2023-11-25)"
   sodipodi:docname="osie-statku-powietrznego.svg"
   xmlns:inkscape="http://www.inkscape.org/namespaces/inkscape"
   xmlns:sodipodi="http://sodipodi.sourceforge.net/DTD/sodipodi-0.dtd"
   xmlns="http://www.w3.org/2000/svg"
   xmlns:svg="http://www.w3.org/2000/svg"><sodipodi:namedview
     id="namedview1"
     pagecolor="#ffffff"
     bordercolor="#000000"
     borderopacity="0.25"
     inkscape:showpageshadow="2"
     inkscape:pageopacity="0.0"
     inkscape:pagecheckerboard="0"
     inkscape:deskcolor="#d1d1d1"
     inkscape:document-units="mm"
     inkscape:zoom="0.81243425"
     inkscape:cx="400.64781"
     inkscape:cy="248.02007"
     inkscape:window-width="1512"
     inkscape:window-height="862"
     inkscape:window-x="0"
     inkscape:window-y="33"
     inkscape:window-maximized="1"
     inkscape:current-layer="layer1" /><defs
     id="defs1"><marker
       style="overflow:visible"
       id="ArrowWideRounded"
       refX="0"
       refY="0"
       orient="auto-start-reverse"
       inkscape:stockid="Wide, rounded arrow"
       markerWidth="1"
       markerHeight="1"
       viewBox="0 0 1 1"
       inkscape:isstock="true"
       inkscape:collect="always"
       preserveAspectRatio="xMidYMid"><path
         style="fill:none;stroke:context-stroke;stroke-width:1;stroke-linecap:round"
         d="M 3,-3 0,0 3,3"
         transform="rotate(180,0.125,0)"
         sodipodi:nodetypes="ccc"
         id="path2" /></marker><marker
       style="overflow:visible"
       id="ArrowWideRounded-4"
       refX="0"
       refY="0"
       orient="auto-start-reverse"
       inkscape:stockid="Wide, rounded arrow"
       markerWidth="1"
       markerHeight="1"
       viewBox="0 0 1 1"
       inkscape:isstock="true"
       inkscape:collect="always"
       preserveAspectRatio="xMidYMid"><path
         style="fill:none;stroke:context-stroke;stroke-width:1;stroke-linecap:round"
         d="M 3,-3 0,0 3,3"
         transform="rotate(180,0.125,0)"
         sodipodi:nodetypes="ccc"
         id="path2-3" /></marker><marker
       style="overflow:visible"
       id="ArrowWideRounded-4-8"
       refX="0"
       refY="0"
       orient="auto-start-reverse"
       inkscape:stockid="Wide, rounded arrow"
       markerWidth="1"
       markerHeight="1"
       viewBox="0 0 1 1"
       inkscape:isstock="true"
       inkscape:collect="always"
       preserveAspectRatio="xMidYMid"><path
         style="fill:none;stroke:context-stroke;stroke-width:1;stroke-linecap:round"
         d="M 3,-3 0,0 3,3"
         transform="rotate(180,0.125,0)"
         sodipodi:nodetypes="ccc"
         id="path2-3-4" /></marker></defs><g
     inkscape:label="Layer 1"
     inkscape:groupmode="layer"
     id="layer1"
     transform="translate(0.83495136,2.5048541)"
     style="display:inline"><rect
       style="fill:#ffffff;fill-opacity:1;stroke-width:1.37944"
       id="rect1"
       height="125"
       x="-0.83495134"
       y="-2.5048542"
       width="225" /><path
       style="fill:#ffffff;stroke:#000000;stroke-width:1;stroke-dasharray:none;stroke-opacity:1"
       d="m 132.25486,37.467369 16.35001,6.027489 -10.79173,2.634769 c 0,0 -8.43272,-6.430132 -8.6649,-6.629141 -0.23218,-0.199009 -0.47541,-0.585968 -0.25429,-0.751808 0.22112,-0.165841 3.36091,-1.281309 3.36091,-1.281309 z"
       id="path11"
       inkscape:label="path11" /><path
       style="fill:#ffffff;stroke:#000000;stroke-width:1;stroke-dasharray:none;stroke-opacity:1"
       d="m 28.769884,43.305821 c 0,0 -2.400558,0.505378 -3.158629,1.137105 -0.75807,0.631725 -1.705659,1.389796 -1.200279,2.337385 0.505381,0.947589 29.75428,25.837583 29.75428,25.837583 l 15.603627,-4.737943 z"
       id="path12" /><path
       style="display:inline;fill:#ffffff;stroke:#000000;stroke-width:2;stroke-dasharray:none;stroke-opacity:1"
       d="m 165.49711,41.651408 c -1.21624,-1.573953 -3.6487,-1.931667 -5.43729,-1.788583 -1.78858,0.143086 -21.60605,4.077964 -23.89544,4.650311 -2.28938,0.572347 -81.241058,25.628269 -83.569484,26.419934 -2.328426,0.791665 -11.502427,4.656852 -13.877421,6.147046 -2.374995,1.490192 -5.727929,5.495084 -6.6593,6.892142 -0.93137,1.397055 -2.607837,5.867635 -3.259796,6.845575 -0.65196,0.97794 -2.281858,3.63234 -2.328426,4.84312 -0.04657,1.21078 -0.279412,4.424007 1.909309,5.727927 2.188721,1.30392 6.519593,2.56127 10.990172,1.86274 4.470579,-0.69852 17.509765,-4.470577 21.095541,-5.867627 3.585779,-1.39706 71.609595,-24.921901 75.882845,-26.85822 4.27325,-1.936316 7.6785,-4.940948 10.34929,-7.344653 2.67078,-2.403705 16.82593,-16.358547 18.29486,-18.161325 1.46893,-1.802781 0.50514,-3.368387 0.50514,-3.368387 z"
       id="path6" /><path
       style="display:inline;fill:#ffffff;stroke:#000000;stroke-width:1;stroke-dasharray:none;stroke-opacity:1"
       d="m 87.756247,81.928352 c -2.710319,1.372761 -5.596638,4.223879 -6.406215,5.244652 -0.809578,1.020769 -1.689553,2.147139 -1.619155,2.780719 0.0704,0.63358 0.633582,0.73918 1.407962,0.77438 0.774377,0.0352 2.815918,0.28159 4.329475,0.0352 1.513553,-0.24639 9.926123,-2.56953 11.862063,-3.308708 1.93594,-0.739179 16.543533,-7.0046 17.986693,-7.70858 1.44316,-0.703982 2.81592,-1.689552 3.3791,-2.287936 0.56319,-0.598382 0.94762,-1.192803 0.82711,-1.594496 -0.12051,-0.401693 -1.56661,-0.94398 -3.59516,-0.883727 -2.02855,0.06026 -7.28731,0.805055 -9.69589,1.466379 -2.40532,0.66043 -15.778283,4.063306 -18.475983,5.482117 z"
       id="path7"
       sodipodi:nodetypes="cssssssssssc" /><path
       style="fill:#ffffff;stroke:#000000;stroke-width:1;stroke-dasharray:none;stroke-opacity:1"
       d="m 104.36496,104.05538 c 0,0 0.14066,0.42196 2.06295,0.18754 1.9223,-0.23443 4.61217,-1.24804 6.23574,-2.10984 2.43775,-1.29398 5.62622,-4.360317 5.90753,-6.048187 0.28131,-1.68787 0.14066,-4.17278 -0.84393,-5.43868 -0.98459,-1.26591 -2.90688,-2.34427 -4.96983,-2.25049 -2.06295,0.0938 -6.47016,1.12524 -7.97049,1.59409 -1.50033,0.46886 -3.67565,1.85867 -4.37815,2.41441 -4.220313,3.33863 3.95618,11.651157 3.95618,11.651157 z"
       id="path14"
       sodipodi:nodetypes="csssssssc" /><path
       style="display:inline;fill:#ffffff;stroke:#000000;stroke-width:1;stroke-dasharray:none;stroke-opacity:1"
       d="m 213.85942,70.88049 -102.37498,8.092003 c 0,0 -7.1269,0.668147 -9.27982,0.816626 -2.15292,0.148476 -11.803933,2.895303 -12.694803,3.637687 -0.89086,0.742387 -2.15291,2.375636 -1.85596,3.118022 0.29696,0.742384 1.26206,1.484775 2.82107,1.336295 1.55901,-0.14848 26.206213,-2.895307 30.437813,-3.340739 4.23159,-0.445431 72.15988,-8.982866 77.5793,-9.725249 5.41941,-0.742387 10.0222,-1.855965 11.65545,-2.375636 1.63325,-0.519671 3.71193,-1.559009 3.71193,-1.559009 z"
       id="path8" /><path
       style="display:inline;fill:#ffffff;stroke:#000000;stroke-width:1;stroke-dasharray:none;stroke-opacity:1"
       d="m 113.70578,83.47049 c -1.92214,1.322767 -6.38271,4.653953 -6.67413,4.918893 -0.47657,0.43324 -1.71169,1.18604 -1.49831,1.48477 0.21338,0.29874 1.451,0.53346 1.94178,0.51212 0.49078,-0.0213 5.59095,-1.77957 6.37311,-1.89991 0.78216,-0.12033 2.16598,0.361 2.61723,0.66183 0.45124,0.30083 0.81224,0.99275 1.29357,0.9025 0.48133,-0.0902 2.37656,-0.60167 3.12864,-0.96266 0.75208,-0.361 1.17324,-0.42117 1.44399,-1.02283 0.27075,-0.60166 1.73822,-3.906247 1.73822,-3.906247 -7.32459,0.671466 -8.87671,1.253056 -8.60311,1.01304 0.36709,-0.322024 0.55368,-0.644895 1.21411,-1.470938 0.70015,-0.875727 -2.39992,-0.626163 -2.9751,-0.230568 z"
       id="path15"
       sodipodi:nodetypes="ssscsscsscsss"
       inkscape:label="path15" /><path
       style="fill:#ffffff;stroke:#000000;stroke-width:1;stroke-dasharray:none;stroke-opacity:1"
       d="m 162.82763,46.234671 29.82863,-0.561744 c 0,0 -1.02982,0.82034 -2.02286,1.068599 -0.99303,0.248258 -3.20478,0.722204 -4.0624,0.789911 -0.85762,0.06771 -31.32564,3.949559 -31.32564,3.949559 0,0 -0.35214,-0.176445 -0.38684,-0.581287 -0.0347,-0.404844 0.1388,-0.659315 0.54364,-0.867521 0.40484,-0.208206 7.42547,-3.797517 7.42547,-3.797517 z"
       id="path9" /><path
       style="fill:#ffffff;stroke:#000000;stroke-width:1;stroke-dasharray:none;stroke-opacity:1"
       d="m 156.57954,40.343877 4.79532,-37.3349769 c 0,0 -4.04524,1.176865 -4.75959,1.371687 -0.71435,0.194823 -1.59105,1.039053 -1.81834,1.526109 -0.22729,0.487055 -10.68275,27.0802989 -11.23475,28.0868819 -0.552,1.006581 -2.40281,5.519965 -3.60421,7.143485 -1.20141,1.623518 -1.72093,2.56516 -2.33787,3.084685 -0.61694,0.519528 -1.32196,0.883287 -0.99176,1.028578 0.33021,0.145291 1.58498,-0.277371 1.96802,-0.369829 0.38304,-0.09246 17.98318,-4.53662 17.98318,-4.53662 z"
       id="path10" /><path
       style="fill:#ffffff;stroke:#000000;stroke-width:1;stroke-dasharray:none;stroke-opacity:1"
       d="m 102.80143,92.425753 c 3.55092,0.46614 5.25193,3.93692 5.35608,6.87769 0.0938,2.647517 -2.19112,5.599537 -5.20392,4.777867 -3.012793,-0.82167 -5.024433,-3.29777 -4.960463,-6.329907 0.0403,-1.91135 0.61486,-6.00256 4.808303,-5.32565 z"
       id="path13"
       sodipodi:nodetypes="csssc" /><path
       style="fill:#ffffff;stroke:#ff0000;stroke-width:1;stroke-dasharray:none;stroke-opacity:1;marker-end:url(#ArrowWideRounded)"
       d="M 92.631557,72.097879 12.408944,99.576423"
       id="path16"
       sodipodi:nodetypes="cc" /><path
       style="display:inline;fill:#ffffff;stroke:#ff0000;stroke-width:1;stroke-dasharray:none;stroke-opacity:1;marker-end:url(#ArrowWideRounded-4)"
       d="M 92.502757,72.061478 92.072347,5.0854631"
       id="path16-0"
       sodipodi:nodetypes="cc" /><path
       style="display:inline;fill:#ffffff;stroke:#ff0000;stroke-width:1;stroke-dasharray:none;stroke-opacity:1;marker-end:url(#ArrowWideRounded-4-8)"
       d="m 92.382297,72.05954 65.671523,28.17948"
       id="path16-0-4"
       sodipodi:nodetypes="cc" /><text
       xml:space="preserve"
       style="font-size:11.2889px;font-family:arial;-inkscape-font-specification:arial;text-align:end;text-anchor:end;fill:#000000;fill-opacity:1;stroke:none;stroke-width:1;stroke-dasharray:none;stroke-opacity:1"
       x="20.025257"
       y="89.439812"
       id="text16"><tspan
         sodipodi:role="line"
         id="tspan16"
         style="font-size:11.2889px;fill:#000000;fill-opacity:1;stroke:none;stroke-width:1"
         x="20.025257"
         y="89.439812">OX</tspan></text><text
       xml:space="preserve"
       style="font-size:11.2889px;font-family:arial;-inkscape-font-specification:arial;text-align:end;text-anchor:end;display:inline;fill:#000000;fill-opacity:1;stroke:none;stroke-width:1;stroke-dasharray:none;stroke-opacity:1"
       x="148.5948"
       y="110.1586"
       id="text16-9"><tspan
         sodipodi:role="line"
         id="tspan16-7"
         style="font-size:11.2889px;fill:#000000;fill-opacity:1;stroke:none;stroke-width:1"
         x="148.5948"
         y="110.1586">OY</tspan></text><text
       xml:space="preserve"
       style="font-size:11.2889px;font-family:arial;-inkscape-font-specification:arial;text-align:end;text-anchor:end;display:inline;fill:#000000;fill-opacity:1;stroke:none;stroke-width:1;stroke-dasharray:none;stroke-opacity:1"
       x="86.361244"
       y="24.221056"
       id="text16-9-5"><tspan
         sodipodi:role="line"
         id="tspan16-7-5"
         style="font-size:11.2889px;fill:#000000;fill-opacity:1;stroke:none;stroke-width:1"
         x="86.361244"
         y="24.221056">OZ</tspan></text></g></svg>
