<?xml version="1.0" encoding="UTF-8" standalone="no"?>
<!-- Created with Inkscape (http://www.inkscape.org/) -->

<svg
   width="161mm"
   height="150mm"
   viewBox="0 0 161 150"
   version="1.1"
   id="svg1"
   inkscape:version="1.3.2 (091e20e, 2023-11-25)"
   sodipodi:docname="oplyw-skrzydla.svg"
   xmlns:inkscape="http://www.inkscape.org/namespaces/inkscape"
   xmlns:sodipodi="http://sodipodi.sourceforge.net/DTD/sodipodi-0.dtd"
   xmlns="http://www.w3.org/2000/svg"
   xmlns:svg="http://www.w3.org/2000/svg">
  <sodipodi:namedview
     id="namedview1"
     pagecolor="#ffffff"
     bordercolor="#000000"
     borderopacity="0.25"
     inkscape:showpageshadow="2"
     inkscape:pageopacity="0.0"
     inkscape:pagecheckerboard="0"
     inkscape:deskcolor="#d1d1d1"
     inkscape:document-units="mm"
     inkscape:zoom="1.0984673"
     inkscape:cx="-4.5517967"
     inkscape:cy="344.57101"
     inkscape:window-width="3440"
     inkscape:window-height="1382"
     inkscape:window-x="0"
     inkscape:window-y="123"
     inkscape:window-maximized="1"
     inkscape:current-layer="g12" />
  <defs
     id="defs1" />
  <g
     inkscape:groupmode="layer"
     id="layer6"
     inkscape:label="Wszystko"
     transform="translate(-20.130974,-62.103397)">
    <g
       inkscape:label="Rysunki"
       inkscape:groupmode="layer"
       id="layer1"
       style="display:inline">
      <path
         style="fill:none;stroke:#000000;stroke-width:0.181096;stroke-linejoin:miter;stroke-dasharray:none"
         d="m 75.952866,78.863706 c -22.992674,-1.607804 -33.107084,2.173337 -33.828369,10.358611 -0.374567,4.25116 3.22932,7.909768 9.458658,6.997878 10.191131,-1.49184 18.585402,-2.079625 43.866677,-0.248475 31.487238,2.280664 62.800028,9.12791 62.800028,9.12791 C 133.10759,90.208189 94.249311,80.143114 75.952866,78.863706 Z"
         id="path1"
         sodipodi:nodetypes="sssscs"
         inkscape:label="Profil skrzydła" />
      <path
         style="fill:none;stroke:#0005ff;stroke-width:1;stroke-opacity:1"
         d="m 21.324547,87.884573 h 8.054794 c 6.778135,0 9.292726,-3.763977 16.695372,-8.133579 10.303761,-6.08206 24.620985,-4.740888 41.73825,-2.189455 18.558437,2.766248 34.855537,8.33435 44.865807,12.564412 11.13522,4.705431 27.03526,12.578799 31.88566,15.163519 5.38339,2.86875 14.31175,7.81928 14.31175,7.81928"
         id="path2"
         sodipodi:nodetypes="csssssc" />
      <path
         style="fill:none;stroke:#0005ff;stroke-width:1;stroke-opacity:1"
         d="m 21.173917,96.497194 h 8.054794 c 6.778135,0 9.327868,2.404575 17.829213,3.677266 8.602996,1.2879 24.864284,-2.994403 42.116194,-1.622539 22.904832,1.821379 28.481172,3.194849 42.220182,5.761369 13.26756,2.47845 25.22621,6.76578 30.27939,8.9274"
         id="path2-7"
         sodipodi:nodetypes="cssssc" />
      <path
         style="fill:none;stroke:#0005ff;stroke-width:1;stroke-opacity:1"
         d="m 21.1652,104.77437 h 8.054794 c 6.778135,0 12.918537,2.06178 21.514195,1.97651 13.043876,-0.1294 23.771493,-2.56811 37.202887,-2.37843 14.967334,0.21136 24.548554,2.05102 35.226154,4.07283 10.37933,1.96532 18.30988,3.83053 26.60439,6.50135"
         id="path2-4"
         sodipodi:nodetypes="cssssc" />
      <path
         style="fill:none;stroke:#0005ff;stroke-width:1;stroke-opacity:1"
         d="m 21.135574,78.719361 h 8.054794 c 6.778135,0 12.106644,-1.993161 20.285867,-4.63757 12.382469,-4.003352 22.525239,-2.629367 39.69933,-0.493672 22.012005,3.387372 43.105995,10.665308 63.677565,18.88102 10.36348,4.138885 25.83408,11.474401 25.83408,11.474401"
         id="path3"
         sodipodi:nodetypes="cssssc" />
      <path
         style="fill:none;stroke:#0005ff;stroke-width:1;stroke-opacity:1"
         d="m 21.135574,69.176202 h 8.054794 c 6.778135,0 11.299938,-0.803252 19.813434,-1.991942 14.461177,-2.019131 23.959578,-1.150392 41.076843,1.40104 17.841445,2.659376 31.326605,6.923563 48.938475,12.235634 7.24708,2.185855 15.80202,5.611091 24.32692,8.619677 6.18405,2.182463 15.34117,4.95977 15.34117,4.95977"
         id="path4"
         sodipodi:nodetypes="csssssc" />
      <path
         style="fill:none;stroke:#0005ff;stroke-width:1;stroke-opacity:1"
         d="m 21.1652,111.83835 h 8.054794 c 19.575795,0.83735 39.143577,-0.55616 58.717082,-0.40192 14.967334,0.21136 23.799344,1.19478 34.476944,3.21659"
         id="path5"
         sodipodi:nodetypes="cssc" />
    </g>
    <g
       inkscape:groupmode="layer"
       id="layer4"
       inkscape:label="Napisy" />
    <g
       inkscape:label="Rysunki"
       inkscape:groupmode="layer"
       id="g12">
      <path
         style="fill:none;stroke:#000000;stroke-width:0.181096;stroke-linejoin:miter;stroke-dasharray:none"
         d="m 82.151253,147.65651 c -21.920735,-7.12245 -32.649441,-5.90054 -35.329498,1.86709 -1.391893,4.03429 1.21985,8.45606 7.484756,9.07827 10.249318,1.01793 18.536441,2.47839 42.623757,10.37125 30.000192,9.83036 58.726352,24.04944 58.726352,24.04944 -20.79285,-20.53154 -56.061923,-39.69832 -73.505367,-45.36605 z"
         id="path6"
         sodipodi:nodetypes="sssscs"
         inkscape:label="Profil skrzydła" />
      <path
         style="fill:none;stroke:#0005ff;stroke-width:1;stroke-opacity:1"
         d="m 22.130694,150.7758 h 8.054794 c 6.778135,0 9.292726,-3.76398 16.695372,-8.13358 10.303761,-6.08206 25.36229,-4.9205 41.926341,0.0938 5.611662,1.69876 11.417279,4.10558 11.789009,6.35491 0.53747,3.25228 -4.761595,2.98292 -4.068299,-0.53558"
         id="path7"
         sodipodi:nodetypes="cssssc" />
      <path
         style="fill:none;stroke:#0005ff;stroke-width:1;stroke-opacity:1"
         d="m 22.456449,158.12587 h 8.054794 c 6.778135,0 14.411856,4.2684 22.913744,5.53746 11.951346,1.78395 21.005372,4.38862 37.527715,9.53863 24.144958,7.52598 51.108558,21.38435 64.790538,24.2393 11.28335,2.35444 18.15747,2.92138 22.34256,2.97478"
         id="path8"
         sodipodi:nodetypes="cssssc" />
      <path
         style="fill:none;stroke:#0005ff;stroke-width:1;stroke-opacity:1"
         d="m 131.00788,166.5273 c 0.81929,-2.0646 -2.06036,-2.88153 -3.4071,-1.73533 -0.78244,0.66592 -1.66494,2.60088 2.45418,5.31671 6.48336,4.27462 14.13186,8.36052 25.4559,15.65395 9.69042,6.24127 18.15747,4.72451 22.34256,4.77791"
         id="path8-7"
         sodipodi:nodetypes="csssc" />
      <path
         style="fill:none;stroke:#0005ff;stroke-width:1;stroke-opacity:1"
         d="m 22.545723,165.75031 h 8.054794 c 20.215179,4.51507 40.557089,8.9118 60.441459,15.07609 24.144954,7.52598 51.108564,21.38435 64.790544,24.2393 11.28335,2.35444 18.15747,2.92138 22.34256,2.97478"
         id="path8-2"
         sodipodi:nodetypes="csssc" />
      <path
         style="fill:none;stroke:#0005ff;stroke-width:1;stroke-opacity:1"
         d="m 22.018234,144.48995 4.334406,-0.24803 c 8.044795,-0.46035 13.665796,-3.66288 26.368382,-7.01746 18.836085,-4.97434 33.946208,0.4349 49.957478,7.00378 7.103,2.91412 9.84383,6.11379 7.97431,8.29936 -1.01834,1.19049 -2.98557,0.90186 -3.8619,0.0903 -0.75447,-0.69875 -1.25746,-2.43697 0.92478,-2.94328"
         id="path7-9"
         sodipodi:nodetypes="csssssc" />
      <path
         style="fill:none;stroke:#0005ff;stroke-width:1;stroke-opacity:1"
         d="m 117.11523,156.07537 c 0.26192,4.86812 -5.50657,5.18309 -6.16353,2.02536 -0.68567,-3.29569 2.00359,-4.0537 3.54582,-2.86218 0.87625,0.67699 0.85233,1.89709 0.31834,2.4683 -0.39612,0.42374 -1.95554,0.90273 -2.30982,-1.2035"
         id="path7-9-3"
         sodipodi:nodetypes="csssc" />
      <path
         style="fill:none;stroke:#0005ff;stroke-width:1;stroke-opacity:1"
         d="m 120.32797,157.63969 c 3.25708,-3.62749 7.55873,0.22873 5.79042,2.92612 -1.84556,2.81525 -4.28315,1.44965 -4.53114,-0.4834 -0.1409,-1.09831 0.73876,-1.94414 1.52025,-1.97046 0.57973,-0.0195 2.0211,0.74445 0.78229,2.4843"
         id="path7-9-3-3"
         sodipodi:nodetypes="csssc" />
      <path
         style="fill:none;stroke:#0005ff;stroke-width:1;stroke-opacity:1"
         d="m 141.72265,168.7491 c 4.87861,3.57146 7.79734,6.17925 13.77187,9.27699 10.23272,5.30557 18.15747,4.72451 22.34256,4.77791"
         id="path8-7-5"
         sodipodi:nodetypes="csc" />
      <text
         xml:space="preserve"
         style="font-size:7.76111px;font-family:arial;-inkscape-font-specification:arial;text-align:end;text-anchor:end;fill:#000000;fill-opacity:1;stroke:none;stroke-width:1;stroke-opacity:1"
         x="179.36386"
         y="142.93893"
         id="text12"><tspan
           sodipodi:role="line"
           id="tspan12"
           style="font-size:7.76111px;fill:#000000;fill-opacity:1;stroke:none;stroke-width:1"
           x="179.36386"
           y="142.93893">Przepływ turbulentny</tspan></text>
      <text
         xml:space="preserve"
         style="font-size:7.76111px;font-family:arial;-inkscape-font-specification:arial;text-align:end;text-anchor:end;fill:#000000;fill-opacity:1;stroke:none;stroke-width:1;stroke-opacity:1"
         x="99.121513"
         y="130.01355"
         id="text12-4"><tspan
           sodipodi:role="line"
           id="tspan12-4"
           style="font-size:7.76111px;fill:#000000;fill-opacity:1;stroke:none;stroke-width:1"
           x="99.121513"
           y="130.01355">Przepływ laminarny</tspan></text>
    </g>
  </g>
</svg>
