<?xml version="1.0" encoding="UTF-8" standalone="no"?>
<!-- Created with Inkscape (http://www.inkscape.org/) -->

<svg
   width="2450"
   height="1080"
   id="svg2"
   sodipodi:version="0.32"
   inkscape:version="1.3.2 (091e20e, 2023-11-25)"
   sodipodi:docname="stateczność-dynamiczna.svg"
   version="1.0"
   xmlns:inkscape="http://www.inkscape.org/namespaces/inkscape"
   xmlns:sodipodi="http://sodipodi.sourceforge.net/DTD/sodipodi-0.dtd"
   xmlns="http://www.w3.org/2000/svg"
   xmlns:svg="http://www.w3.org/2000/svg"
   xmlns:rdf="http://www.w3.org/1999/02/22-rdf-syntax-ns#"
   xmlns:cc="http://creativecommons.org/ns#"
   xmlns:dc="http://purl.org/dc/elements/1.1/">
  <defs
     id="defs4" />
  <sodipodi:namedview
     id="base"
     pagecolor="#ffffff"
     bordercolor="#666666"
     borderopacity="1.0"
     inkscape:pageopacity="0.0"
     inkscape:pageshadow="2"
     inkscape:zoom="0.28479539"
     inkscape:cx="1037.587"
     inkscape:cy="816.37556"
     inkscape:document-units="px"
     inkscape:current-layer="g36"
     inkscape:window-width="1512"
     inkscape:window-height="862"
     inkscape:window-x="0"
     inkscape:window-y="33"
     width="1800px"
     height="1200px"
     borderlayer="true"
     showguides="true"
     inkscape:guide-bbox="true"
     inkscape:showpageshadow="2"
     inkscape:pagecheckerboard="0"
     inkscape:deskcolor="#d1d1d1"
     inkscape:window-maximized="0" />
  <metadata
     id="metadata7">
    <rdf:RDF>
      <cc:Work
         rdf:about="">
        <dc:format>image/svg+xml</dc:format>
        <dc:type
           rdf:resource="http://purl.org/dc/dcmitype/StillImage" />
      </cc:Work>
    </rdf:RDF>
  </metadata>
  <g
     inkscape:groupmode="layer"
     id="layer3"
     inkscape:label="All">
    <rect
       style="fill:#ffffff;fill-opacity:1;stroke:none;stroke-width:4.63714"
       id="rect1"
       width="2450"
       height="1080"
       x="0"
       y="0"
       inkscape:label="rect1" />
    <g
       inkscape:groupmode="layer"
       id="g71"
       inkscape:label="Obojętny copy"
       transform="translate(0,652)">
      <g
         inkscape:groupmode="layer"
         id="g70"
         inkscape:label="Samolot"
         transform="rotate(-30,1484.5148,870.59379)">
        <path
           style="fill:none;fill-rule:evenodd;stroke:#000000;stroke-width:1.92133;stroke-linecap:butt;stroke-linejoin:miter;stroke-miterlimit:4;stroke-dasharray:none;stroke-opacity:1"
           d="m 1760.171,192.11862 c -9.6067,0 -19.2133,0 -23.7879,-1.71542 -6.1757,-10.97901 -18.5223,-18.57947 -25.5033,-20.2425 -4.3506,-7.03821 -7.8149,-10.01653 -13.1519,-11.5509 -14.3719,-2.22061 -58.5447,-1.39744 -73.8796,3.43098 -8.7361,2.75064 -15.3247,2.89083 -19.6708,10.17849 -11.6654,5.57217 -13.7237,6.97621 -25.5033,16.01097 -2.2873,0 -106.1305,-10.97895 -107.9603,-10.97895 -1.8299,0 -28.0194,-4.11715 -31.7934,-6.06134 -3.7286,-1.92081 -11.503,-10.31221 -18.0697,-17.72655 -2.1473,-2.42453 -35.7961,-42.31495 -35.7961,-42.31495 l -35.3387,1.02926 24.474,76.05253 c -2.6967,5.87017 -2.4068,9.3187 -0.6862,14.06688 2.3636,3.24031 9.9879,3.62151 14.8674,4.68893 83.2957,17.34537 212.4135,39.76086 260.7517,42.54371"
           id="path37"
           sodipodi:nodetypes="ccccsccszscccccc" />
        <path
           style="fill:none;fill-rule:evenodd;stroke:#000000;stroke-width:1.92133;stroke-linecap:butt;stroke-linejoin:miter;stroke-miterlimit:4;stroke-dasharray:none;stroke-opacity:1"
           d="m 1751.262,249.0053 c 11.0935,-0.57185 22.1968,-4.27297 29.266,-8.85341 6.9083,-4.47631 10.9505,-14.67248 15.2105,-26.99011 0,0 20.0138,-2.17296 19.8994,-8.80609 -0.1005,-5.8329 -20.1282,-6.51881 -20.1282,-6.51881 0.309,-4.14072 -3.9746,-4.99436 -7.9961,-5.11771 -7.0166,-0.21532 -21.5451,-0.85698 -28.2575,-0.60055"
           id="path38"
           sodipodi:nodetypes="czczccc" />
        <path
           style="fill:none;fill-rule:evenodd;stroke:#000000;stroke-width:1.92133;stroke-linecap:butt;stroke-linejoin:miter;stroke-miterlimit:4;stroke-dasharray:none;stroke-opacity:1"
           d="m 1743.245,249.64414 c -35.0816,1.88412 -58.0529,1.78191 -85.4744,0.31536"
           id="path39"
           sodipodi:nodetypes="cc" />
        <path
           style="fill:none;fill-opacity:0.823529;fill-rule:evenodd;stroke:#000000;stroke-width:1.92133;stroke-linecap:round;stroke-linejoin:round;stroke-miterlimit:4;stroke-dashoffset:80;stroke-opacity:1"
           d="m 1603.6926,203.96143 -15.6024,0.11439 c -2.5512,-0.11439 -3.1299,1.74174 -3.0155,3.3816 l 0.2287,24.27386 c 0.1144,2.78356 0.2356,5.09709 3.7017,6.4695 l 14.4588,2.51604 c 4.1523,0.45747 5.0741,0.65991 4.9597,-1.78056 l -1.258,-30.90699 c 0,-3.58411 -1.2649,-4.06784 -3.473,-4.06784 z"
           id="path40"
           sodipodi:nodetypes="ccccccccc" />
        <path
           style="fill:none;fill-opacity:0.823529;fill-rule:evenodd;stroke:#000000;stroke-width:1.92133;stroke-linecap:round;stroke-linejoin:round;stroke-miterlimit:4;stroke-dashoffset:80;stroke-opacity:1"
           d="m 1667.7337,255.48395 -35.9592,0.34309 c -2.5512,-0.11438 -6.7638,4.82157 -6.2178,10.47226 0.5614,5.80939 5.1706,4.80659 8.2763,7.8704 16.9422,2.21106 27.48,3.73589 40.9913,2.74475 6.8687,-3.93053 10.7126,-6.31605 10.7923,-9.12843 -0.5913,-6.16387 -12.93,-13.4457 -17.8829,-12.30207 z"
           id="path41"
           sodipodi:nodetypes="cczcccc" />
        <path
           style="fill:none;fill-opacity:0.823529;fill-rule:evenodd;stroke:#000000;stroke-width:1.92133;stroke-linecap:round;stroke-linejoin:round;stroke-miterlimit:4;stroke-dashoffset:80;stroke-opacity:1"
           d="m 1759.0722,259.58106 -30.1539,0.2873 c -2.1393,-0.0958 -5.6717,4.03665 -5.2139,8.76747 0.4707,4.86371 4.3358,4.02422 6.9401,6.58932 14.207,1.85114 23.0435,3.12773 34.3735,2.29791 5.7598,-3.29066 8.9831,-5.28788 9.05,-7.64247 -0.4959,-5.16049 -10.8426,-11.25699 -14.9958,-10.29953 z"
           id="path42"
           sodipodi:nodetypes="cczcccc" />
        <path
           style="fill:none;fill-rule:evenodd;stroke:#000000;stroke-width:1.92133;stroke-linecap:butt;stroke-linejoin:miter;stroke-miterlimit:4;stroke-dasharray:none;stroke-opacity:1"
           d="m 1761.4814,277.85045 c -1.527,7.8647 -11.9514,11.41544 -18.4379,-0.64697"
           id="path43"
           sodipodi:nodetypes="cc" />
        <path
           style="fill:none;fill-rule:evenodd;stroke:#000000;stroke-width:1.92133;stroke-linecap:butt;stroke-linejoin:miter;stroke-miterlimit:4;stroke-dasharray:none;stroke-opacity:1"
           d="m 1671.3943,276.95915 c -1.7681,9.26509 -17.3967,12.15419 -21.3491,-1.08568"
           id="path44"
           sodipodi:nodetypes="cc" />
        <path
           style="fill:none;fill-rule:evenodd;stroke:#000000;stroke-width:1.28089;stroke-linecap:butt;stroke-linejoin:miter;stroke-miterlimit:4;stroke-dasharray:none;stroke-opacity:1"
           d="m 1374.2851,187.92517 5.1755,17.46752"
           id="path45" />
        <path
           style="fill:none;fill-rule:evenodd;stroke:#000000;stroke-width:1.28089;stroke-linecap:butt;stroke-linejoin:miter;stroke-miterlimit:4;stroke-dasharray:none;stroke-opacity:1"
           d="m 1370.0799,111.26226 1.9409,7.11634 -3.5582,3.55824 35.9054,65.34142"
           id="path46" />
        <path
           style="fill:none;fill-rule:evenodd;stroke:#000000;stroke-width:1.28089;stroke-linecap:butt;stroke-linejoin:miter;stroke-miterlimit:4;stroke-dasharray:none;stroke-opacity:1"
           d="m 1404.368,191.80686 0.3235,18.1144"
           id="path47" />
        <path
           style="fill:none;fill-rule:evenodd;stroke:#000000;stroke-width:1.92133;stroke-linecap:butt;stroke-linejoin:miter;stroke-miterlimit:4;stroke-dasharray:none;stroke-opacity:1"
           d="m 1576.9405,187.92523 -134.7262,-0.32349"
           id="path48"
           sodipodi:nodetypes="cc" />
        <path
           style="fill:none;fill-rule:evenodd;stroke:#000000;stroke-width:1.92133;stroke-linecap:butt;stroke-linejoin:miter;stroke-miterlimit:4;stroke-dasharray:none;stroke-opacity:1"
           d="m 1444.792,190.02463 c -2.4452,-6.84508 -46.9126,-2.75438 -66.2685,-2.5821 1.6572,0.0403 65.6284,10.81749 66.2685,2.5821 z"
           id="path49"
           sodipodi:nodetypes="ccc" />
        <path
           style="fill:none;fill-rule:evenodd;stroke:#000000;stroke-width:1.92133;stroke-linecap:butt;stroke-linejoin:miter;stroke-miterlimit:4;stroke-dasharray:none;stroke-opacity:1"
           d="m 1700.0217,171.75156 -3.2348,7.1164 8.4103,61.29802"
           id="path50"
           sodipodi:nodetypes="ccc" />
        <path
           style="fill:none;fill-rule:evenodd;stroke:#000000;stroke-width:1.92133;stroke-linecap:butt;stroke-linejoin:miter;stroke-miterlimit:4;stroke-dasharray:none;stroke-opacity:1"
           d="m 1684.8185,173.04544 5.1756,6.4695 8.7337,61.45972"
           id="path51" />
        <path
           style="fill:none;fill-rule:evenodd;stroke:#000000;stroke-width:1.92133;stroke-linecap:butt;stroke-linejoin:miter;stroke-miterlimit:4;stroke-dasharray:none;stroke-opacity:1"
           d="m 1704.5503,237.73991 c 1.9408,0.16178 8.1677,2.10258 7.7633,4.52864 -0.4043,2.42606 -2.9112,3.88166 -8.0868,3.88166 -5.1755,0 -11.0875,-0.44396 -12.6154,-3.88166 -1.2939,-2.91133 5.2564,-2.58784 6.4695,-3.88172"
           id="path52"
           sodipodi:nodetypes="czzzz" />
        <path
           style="fill:none;fill-rule:evenodd;stroke:#000000;stroke-width:1.92133;stroke-linecap:butt;stroke-linejoin:miter;stroke-miterlimit:4;stroke-dasharray:none;stroke-opacity:1"
           d="m 1795.446,198.59978 c 0.647,1.61731 0,14.87972 0,14.87972"
           id="path53" />
        <path
           style="fill:none;fill-rule:evenodd;stroke:#000000;stroke-width:1.92133;stroke-linecap:butt;stroke-linejoin:miter;stroke-miterlimit:4;stroke-dasharray:none;stroke-opacity:1"
           d="m 1787.0357,193.42417 -1.2938,42.37488"
           id="path54" />
        <path
           style="fill:none;fill-rule:evenodd;stroke:#000000;stroke-width:1.92133;stroke-linecap:butt;stroke-linejoin:miter;stroke-miterlimit:4;stroke-dasharray:none;stroke-opacity:1"
           d="m 1786.5505,205.71612 c -1.9408,0 -50.1382,3.07303 -50.1382,3.07303"
           id="path55"
           sodipodi:nodetypes="cc" />
        <path
           style="fill:none;fill-rule:evenodd;stroke:#000000;stroke-width:1.92133;stroke-linecap:butt;stroke-linejoin:miter;stroke-miterlimit:4;stroke-dasharray:none;stroke-opacity:1"
           d="m 1736.5741,190.35119 -0.3235,34.4498 6.4695,7.43989 -0.647,16.82059"
           id="path56"
           sodipodi:nodetypes="cccc" />
        <path
           style="fill:none;fill-rule:evenodd;stroke:#000000;stroke-width:1.92133;stroke-linecap:butt;stroke-linejoin:miter;stroke-miterlimit:4;stroke-dasharray:none;stroke-opacity:1"
           d="m 1736.0889,189.3808 c -5.6488,7.36906 -14.1882,14.37582 -33.4794,12.45366 l -5.1756,-23.28998"
           id="path57"
           sodipodi:nodetypes="ccc" />
        <path
           style="fill:none;fill-rule:evenodd;stroke:#000000;stroke-width:1.92133;stroke-linecap:butt;stroke-linejoin:miter;stroke-miterlimit:4;stroke-dasharray:none;stroke-opacity:1"
           d="m 1711.3432,170.61945 c -4.0549,3.74703 -8.4566,5.0666 -12.9389,5.82245"
           id="path58"
           sodipodi:nodetypes="cc" />
        <path
           style="fill:none;fill-rule:evenodd;stroke:#000000;stroke-width:1.92133;stroke-linecap:butt;stroke-linejoin:miter;stroke-miterlimit:4;stroke-dasharray:none;stroke-opacity:1"
           d="m 1696.14,239.0338 c 0,0 -36.6197,0.29653 -44.3157,-0.32349 -2.6615,-0.47264 -5.8476,-1.7575 -6.1459,-8.41029 -0.5795,-8.65289 0.6469,-54.66674 0.6469,-54.66674"
           id="path59"
           sodipodi:nodetypes="cccc" />
        <path
           style="fill:none;fill-rule:evenodd;stroke:#000000;stroke-width:1.92133;stroke-linecap:butt;stroke-linejoin:miter;stroke-miterlimit:4;stroke-dasharray:none;stroke-opacity:1"
           d="m 1688.0532,176.76539 -83.2941,-3.39646"
           id="path60"
           sodipodi:nodetypes="cc" />
        <path
           style="fill:none;fill-rule:evenodd;stroke:#000000;stroke-width:1.92133;stroke-linecap:butt;stroke-linejoin:miter;stroke-miterlimit:4;stroke-dasharray:none;stroke-opacity:1"
           d="m 1629.1813,160.59178 c 0,0 1.2883,4.73652 3.073,5.49903 5.0138,2.14215 62.9153,2.10751 62.9153,0.4852 3.9943,-0.34597 5.814,-1.92453 6.7929,-6.46943"
           id="path61"
           sodipodi:nodetypes="cscc" />
        <path
           style="fill:none;fill-rule:evenodd;stroke:#000000;stroke-width:1.92133;stroke-linecap:butt;stroke-linejoin:miter;stroke-miterlimit:4;stroke-dasharray:none;stroke-opacity:1"
           d="m 1632.9012,166.25252 -10.0276,7.9251"
           id="path62"
           sodipodi:nodetypes="cc" />
        <path
           style="fill:none;fill-rule:evenodd;stroke:#000000;stroke-width:1.92133;stroke-linecap:butt;stroke-linejoin:miter;stroke-miterlimit:4;stroke-dasharray:none;stroke-opacity:1"
           d="m 1577.5874,188.24869 13.1007,6.46936 c 2.21,-0.2702 3.9198,-1.48192 5.1755,-3.23468 0,0 8.006,-11.9685 8.7338,-14.23278 0.7751,-2.4114 0,-4.52864 0,-4.52864"
           id="path63"
           sodipodi:nodetypes="ccczc" />
        <path
           style="fill:none;fill-rule:evenodd;stroke:#000000;stroke-width:1.92133;stroke-linecap:butt;stroke-linejoin:miter;stroke-miterlimit:4;stroke-dasharray:none;stroke-opacity:1"
           d="m 1639.3707,202.31972 c -3.5582,0 -22.36,0.3639 -25.3926,0.16171 -3.0476,-0.20321 -14.5719,-4.50942 -15.2032,-6.30771 -0.5805,-1.65363 7.1164,-14.8797 7.1164,-14.8797 0.8145,-1.82744 2.4164,-2.60493 4.5234,-2.70913 l 29.4412,0.93005 c 2.2641,0.1081 3.5548,0.3808 3.3964,3.07297 l -0.4852,16.01187 c -0.2146,2.81545 -0.9474,3.55343 -3.3964,3.71994 z"
           id="path64"
           sodipodi:nodetypes="czzcccccc" />
        <path
           style="fill:none;fill-rule:evenodd;stroke:#000000;stroke-width:1.92133;stroke-linecap:butt;stroke-linejoin:miter;stroke-miterlimit:4;stroke-dasharray:none;stroke-opacity:1"
           d="m 1689.9941,180.16185 c -1.2939,0 -36.8759,0 -36.8759,0 -1.8108,0.35903 -4.1165,-0.074 -3.8816,3.55823 0,0 0,12.93883 0,14.23272 0,1.29389 0.3235,5.17555 2.9112,5.17555 2.5878,0 40.5958,0.16177 40.5958,0.16177"
           id="path65"
           sodipodi:nodetypes="cccssc" />
        <path
           style="fill:none;fill-rule:evenodd;stroke:#000000;stroke-width:1.92133;stroke-linecap:butt;stroke-linejoin:miter;stroke-miterlimit:4;stroke-dasharray:none;stroke-opacity:1"
           d="m 1751.4538,248.73798 c 0,1.94086 0,10.99806 0,10.99806"
           id="path66"
           sodipodi:nodetypes="cc" />
        <path
           style="fill:none;fill-rule:evenodd;stroke:#000000;stroke-width:1.92133;stroke-linecap:butt;stroke-linejoin:round;stroke-miterlimit:4;stroke-dasharray:none;stroke-opacity:1"
           d="m 1751.939,248.89969 -9.3086,0.82271 -3.9538,4.67639 5.9843,5.49897"
           id="path67"
           sodipodi:nodetypes="cccc" />
        <path
           style="fill:none;fill-rule:evenodd;stroke:#000000;stroke-width:1.92133;stroke-linecap:butt;stroke-linejoin:miter;stroke-miterlimit:4;stroke-dasharray:none;stroke-opacity:1"
           d="m 1659.7494,255.36919 -2.2643,-5.33732 c 0.7548,-1.40168 4.313,-3.8262 2.426,-5.17555 -1.8869,-1.34935 -11.3914,-1.89398 -13.7475,0.32349 -2.3452,2.20709 0,2.85727 -1.1322,4.36679"
           id="path68"
           sodipodi:nodetypes="cczzc" />
        <path
           style="fill:none;fill-rule:evenodd;stroke:#000000;stroke-width:1.92133;stroke-linecap:butt;stroke-linejoin:miter;stroke-miterlimit:4;stroke-dasharray:none;stroke-opacity:1"
           d="m 1648.5897,249.22318 2.7494,6.46949"
           id="path69"
           sodipodi:nodetypes="cc" />
        <path
           style="fill:none;fill-rule:evenodd;stroke:#000000;stroke-width:1.28089;stroke-linecap:butt;stroke-linejoin:miter;stroke-miterlimit:4;stroke-dasharray:none;stroke-opacity:1"
           d="m 1699.86,172.07504 c -4.4653,-0.12046 -8.6937,-0.5566 -14.3945,0.9704"
           id="path70"
           sodipodi:nodetypes="cc" />
      </g>
      <text
         xml:space="preserve"
         style="font-size:85.3333px;font-family:arial;-inkscape-font-specification:arial;text-align:end;text-anchor:end;fill:#000000;fill-opacity:1;stroke:none;stroke-width:3.77953"
         x="456.37244"
         y="254.3649"
         id="text70"><tspan
           sodipodi:role="line"
           id="tspan70"
           x="456.37241"
           y="254.3649">Stateczny</tspan></text>
      <path
         style="fill:none;fill-opacity:1;stroke:#000000;stroke-width:3.88;stroke-dasharray:none;stroke-opacity:1"
         d="m 1438.2431,128.08154 c 0,0 75.9567,-56.348627 152.9068,-59.51841 131.7977,-5.429099 147.4986,179.77919 278.0642,176.76768 117.9205,-2.71985 136.4782,-118.29101 228.2796,-120.17766 63.3208,-1.30133 74.9608,59.41909 118.1127,59.71142 18.0077,0.12199 54.8893,-37.13564 92.3751,-38.16046 18.742,-0.51238 37.595,13.09798 54.0121,13.2693 13.9458,0.14553 18.6242,-3.47053 26.9908,-3.8092"
         id="path71"
         sodipodi:nodetypes="cssssssc" />
    </g>
    <g
       inkscape:groupmode="layer"
       id="g36"
       inkscape:label="Obojętny"
       transform="translate(0,312)">
      <g
         inkscape:groupmode="layer"
         id="g35"
         inkscape:label="Samolot"
         transform="rotate(-30,1487.6751,867.7832)">
        <path
           style="fill:none;fill-rule:evenodd;stroke:#000000;stroke-width:1.92133;stroke-linecap:butt;stroke-linejoin:miter;stroke-miterlimit:4;stroke-dasharray:none;stroke-opacity:1"
           d="m 1760.171,192.11862 c -9.6067,0 -19.2133,0 -23.7879,-1.71542 -6.1757,-10.97901 -18.5223,-18.57947 -25.5033,-20.2425 -4.3506,-7.03821 -7.8149,-10.01653 -13.1519,-11.5509 -14.3719,-2.22061 -58.5447,-1.39744 -73.8796,3.43098 -8.7361,2.75064 -15.3247,2.89083 -19.6708,10.17849 -11.6654,5.57217 -13.7237,6.97621 -25.5033,16.01097 -2.2873,0 -106.1305,-10.97895 -107.9603,-10.97895 -1.8299,0 -28.0194,-4.11715 -31.7934,-6.06134 -3.7286,-1.92081 -11.503,-10.31221 -18.0697,-17.72655 -2.1473,-2.42453 -35.7961,-42.31495 -35.7961,-42.31495 l -35.3387,1.02926 24.474,76.05253 c -2.6967,5.87017 -2.4068,9.3187 -0.6862,14.06688 2.3636,3.24031 9.9879,3.62151 14.8674,4.68893 83.2957,17.34537 212.4135,39.76086 260.7517,42.54371"
           id="path2"
           sodipodi:nodetypes="ccccsccszscccccc" />
        <path
           style="fill:none;fill-rule:evenodd;stroke:#000000;stroke-width:1.92133;stroke-linecap:butt;stroke-linejoin:miter;stroke-miterlimit:4;stroke-dasharray:none;stroke-opacity:1"
           d="m 1751.262,249.0053 c 11.0935,-0.57185 22.1968,-4.27297 29.266,-8.85341 6.9083,-4.47631 10.9505,-14.67248 15.2105,-26.99011 0,0 20.0138,-2.17296 19.8994,-8.80609 -0.1005,-5.8329 -20.1282,-6.51881 -20.1282,-6.51881 0.309,-4.14072 -3.9746,-4.99436 -7.9961,-5.11771 -7.0166,-0.21532 -21.5451,-0.85698 -28.2575,-0.60055"
           id="path3"
           sodipodi:nodetypes="czczccc" />
        <path
           style="fill:none;fill-rule:evenodd;stroke:#000000;stroke-width:1.92133;stroke-linecap:butt;stroke-linejoin:miter;stroke-miterlimit:4;stroke-dasharray:none;stroke-opacity:1"
           d="m 1743.245,249.64414 c -35.0816,1.88412 -58.0529,1.78191 -85.4744,0.31536"
           id="path4"
           sodipodi:nodetypes="cc" />
        <path
           style="fill:none;fill-opacity:0.823529;fill-rule:evenodd;stroke:#000000;stroke-width:1.92133;stroke-linecap:round;stroke-linejoin:round;stroke-miterlimit:4;stroke-dashoffset:80;stroke-opacity:1"
           d="m 1603.6926,203.96143 -15.6024,0.11439 c -2.5512,-0.11439 -3.1299,1.74174 -3.0155,3.3816 l 0.2287,24.27386 c 0.1144,2.78356 0.2356,5.09709 3.7017,6.4695 l 14.4588,2.51604 c 4.1523,0.45747 5.0741,0.65991 4.9597,-1.78056 l -1.258,-30.90699 c 0,-3.58411 -1.2649,-4.06784 -3.473,-4.06784 z"
           id="path5"
           sodipodi:nodetypes="ccccccccc" />
        <path
           style="fill:none;fill-opacity:0.823529;fill-rule:evenodd;stroke:#000000;stroke-width:1.92133;stroke-linecap:round;stroke-linejoin:round;stroke-miterlimit:4;stroke-dashoffset:80;stroke-opacity:1"
           d="m 1667.7337,255.48395 -35.9592,0.34309 c -2.5512,-0.11438 -6.7638,4.82157 -6.2178,10.47226 0.5614,5.80939 5.1706,4.80659 8.2763,7.8704 16.9422,2.21106 27.48,3.73589 40.9913,2.74475 6.8687,-3.93053 10.7126,-6.31605 10.7923,-9.12843 -0.5913,-6.16387 -12.93,-13.4457 -17.8829,-12.30207 z"
           id="path6"
           sodipodi:nodetypes="cczcccc" />
        <path
           style="fill:none;fill-opacity:0.823529;fill-rule:evenodd;stroke:#000000;stroke-width:1.92133;stroke-linecap:round;stroke-linejoin:round;stroke-miterlimit:4;stroke-dashoffset:80;stroke-opacity:1"
           d="m 1759.0722,259.58106 -30.1539,0.2873 c -2.1393,-0.0958 -5.6717,4.03665 -5.2139,8.76747 0.4707,4.86371 4.3358,4.02422 6.9401,6.58932 14.207,1.85114 23.0435,3.12773 34.3735,2.29791 5.7598,-3.29066 8.9831,-5.28788 9.05,-7.64247 -0.4959,-5.16049 -10.8426,-11.25699 -14.9958,-10.29953 z"
           id="path7"
           sodipodi:nodetypes="cczcccc" />
        <path
           style="fill:none;fill-rule:evenodd;stroke:#000000;stroke-width:1.92133;stroke-linecap:butt;stroke-linejoin:miter;stroke-miterlimit:4;stroke-dasharray:none;stroke-opacity:1"
           d="m 1761.4814,277.85045 c -1.527,7.8647 -11.9514,11.41544 -18.4379,-0.64697"
           id="path8"
           sodipodi:nodetypes="cc" />
        <path
           style="fill:none;fill-rule:evenodd;stroke:#000000;stroke-width:1.92133;stroke-linecap:butt;stroke-linejoin:miter;stroke-miterlimit:4;stroke-dasharray:none;stroke-opacity:1"
           d="m 1671.3943,276.95915 c -1.7681,9.26509 -17.3967,12.15419 -21.3491,-1.08568"
           id="path9"
           sodipodi:nodetypes="cc" />
        <path
           style="fill:none;fill-rule:evenodd;stroke:#000000;stroke-width:1.28089;stroke-linecap:butt;stroke-linejoin:miter;stroke-miterlimit:4;stroke-dasharray:none;stroke-opacity:1"
           d="m 1374.2851,187.92517 5.1755,17.46752"
           id="path10" />
        <path
           style="fill:none;fill-rule:evenodd;stroke:#000000;stroke-width:1.28089;stroke-linecap:butt;stroke-linejoin:miter;stroke-miterlimit:4;stroke-dasharray:none;stroke-opacity:1"
           d="m 1370.0799,111.26226 1.9409,7.11634 -3.5582,3.55824 35.9054,65.34142"
           id="path11" />
        <path
           style="fill:none;fill-rule:evenodd;stroke:#000000;stroke-width:1.28089;stroke-linecap:butt;stroke-linejoin:miter;stroke-miterlimit:4;stroke-dasharray:none;stroke-opacity:1"
           d="m 1404.368,191.80686 0.3235,18.1144"
           id="path12" />
        <path
           style="fill:none;fill-rule:evenodd;stroke:#000000;stroke-width:1.92133;stroke-linecap:butt;stroke-linejoin:miter;stroke-miterlimit:4;stroke-dasharray:none;stroke-opacity:1"
           d="m 1576.9405,187.92523 -134.7262,-0.32349"
           id="path13"
           sodipodi:nodetypes="cc" />
        <path
           style="fill:none;fill-rule:evenodd;stroke:#000000;stroke-width:1.92133;stroke-linecap:butt;stroke-linejoin:miter;stroke-miterlimit:4;stroke-dasharray:none;stroke-opacity:1"
           d="m 1444.792,190.02463 c -2.4452,-6.84508 -46.9126,-2.75438 -66.2685,-2.5821 1.6572,0.0403 65.6284,10.81749 66.2685,2.5821 z"
           id="path14"
           sodipodi:nodetypes="ccc" />
        <path
           style="fill:none;fill-rule:evenodd;stroke:#000000;stroke-width:1.92133;stroke-linecap:butt;stroke-linejoin:miter;stroke-miterlimit:4;stroke-dasharray:none;stroke-opacity:1"
           d="m 1700.0217,171.75156 -3.2348,7.1164 8.4103,61.29802"
           id="path15"
           sodipodi:nodetypes="ccc" />
        <path
           style="fill:none;fill-rule:evenodd;stroke:#000000;stroke-width:1.92133;stroke-linecap:butt;stroke-linejoin:miter;stroke-miterlimit:4;stroke-dasharray:none;stroke-opacity:1"
           d="m 1684.8185,173.04544 5.1756,6.4695 8.7337,61.45972"
           id="path16" />
        <path
           style="fill:none;fill-rule:evenodd;stroke:#000000;stroke-width:1.92133;stroke-linecap:butt;stroke-linejoin:miter;stroke-miterlimit:4;stroke-dasharray:none;stroke-opacity:1"
           d="m 1704.5503,237.73991 c 1.9408,0.16178 8.1677,2.10258 7.7633,4.52864 -0.4043,2.42606 -2.9112,3.88166 -8.0868,3.88166 -5.1755,0 -11.0875,-0.44396 -12.6154,-3.88166 -1.2939,-2.91133 5.2564,-2.58784 6.4695,-3.88172"
           id="path17"
           sodipodi:nodetypes="czzzz" />
        <path
           style="fill:none;fill-rule:evenodd;stroke:#000000;stroke-width:1.92133;stroke-linecap:butt;stroke-linejoin:miter;stroke-miterlimit:4;stroke-dasharray:none;stroke-opacity:1"
           d="m 1795.446,198.59978 c 0.647,1.61731 0,14.87972 0,14.87972"
           id="path18" />
        <path
           style="fill:none;fill-rule:evenodd;stroke:#000000;stroke-width:1.92133;stroke-linecap:butt;stroke-linejoin:miter;stroke-miterlimit:4;stroke-dasharray:none;stroke-opacity:1"
           d="m 1787.0357,193.42417 -1.2938,42.37488"
           id="path19" />
        <path
           style="fill:none;fill-rule:evenodd;stroke:#000000;stroke-width:1.92133;stroke-linecap:butt;stroke-linejoin:miter;stroke-miterlimit:4;stroke-dasharray:none;stroke-opacity:1"
           d="m 1786.5505,205.71612 c -1.9408,0 -50.1382,3.07303 -50.1382,3.07303"
           id="path20"
           sodipodi:nodetypes="cc" />
        <path
           style="fill:none;fill-rule:evenodd;stroke:#000000;stroke-width:1.92133;stroke-linecap:butt;stroke-linejoin:miter;stroke-miterlimit:4;stroke-dasharray:none;stroke-opacity:1"
           d="m 1736.5741,190.35119 -0.3235,34.4498 6.4695,7.43989 -0.647,16.82059"
           id="path21"
           sodipodi:nodetypes="cccc" />
        <path
           style="fill:none;fill-rule:evenodd;stroke:#000000;stroke-width:1.92133;stroke-linecap:butt;stroke-linejoin:miter;stroke-miterlimit:4;stroke-dasharray:none;stroke-opacity:1"
           d="m 1736.0889,189.3808 c -5.6488,7.36906 -14.1882,14.37582 -33.4794,12.45366 l -5.1756,-23.28998"
           id="path22"
           sodipodi:nodetypes="ccc" />
        <path
           style="fill:none;fill-rule:evenodd;stroke:#000000;stroke-width:1.92133;stroke-linecap:butt;stroke-linejoin:miter;stroke-miterlimit:4;stroke-dasharray:none;stroke-opacity:1"
           d="m 1711.3432,170.61945 c -4.0549,3.74703 -8.4566,5.0666 -12.9389,5.82245"
           id="path23"
           sodipodi:nodetypes="cc" />
        <path
           style="fill:none;fill-rule:evenodd;stroke:#000000;stroke-width:1.92133;stroke-linecap:butt;stroke-linejoin:miter;stroke-miterlimit:4;stroke-dasharray:none;stroke-opacity:1"
           d="m 1696.14,239.0338 c 0,0 -36.6197,0.29653 -44.3157,-0.32349 -2.6615,-0.47264 -5.8476,-1.7575 -6.1459,-8.41029 -0.5795,-8.65289 0.6469,-54.66674 0.6469,-54.66674"
           id="path24"
           sodipodi:nodetypes="cccc" />
        <path
           style="fill:none;fill-rule:evenodd;stroke:#000000;stroke-width:1.92133;stroke-linecap:butt;stroke-linejoin:miter;stroke-miterlimit:4;stroke-dasharray:none;stroke-opacity:1"
           d="m 1688.0532,176.76539 -83.2941,-3.39646"
           id="path25"
           sodipodi:nodetypes="cc" />
        <path
           style="fill:none;fill-rule:evenodd;stroke:#000000;stroke-width:1.92133;stroke-linecap:butt;stroke-linejoin:miter;stroke-miterlimit:4;stroke-dasharray:none;stroke-opacity:1"
           d="m 1629.1813,160.59178 c 0,0 1.2883,4.73652 3.073,5.49903 5.0138,2.14215 62.9153,2.10751 62.9153,0.4852 3.9943,-0.34597 5.814,-1.92453 6.7929,-6.46943"
           id="path26"
           sodipodi:nodetypes="cscc" />
        <path
           style="fill:none;fill-rule:evenodd;stroke:#000000;stroke-width:1.92133;stroke-linecap:butt;stroke-linejoin:miter;stroke-miterlimit:4;stroke-dasharray:none;stroke-opacity:1"
           d="m 1632.9012,166.25252 -10.0276,7.9251"
           id="path27"
           sodipodi:nodetypes="cc" />
        <path
           style="fill:none;fill-rule:evenodd;stroke:#000000;stroke-width:1.92133;stroke-linecap:butt;stroke-linejoin:miter;stroke-miterlimit:4;stroke-dasharray:none;stroke-opacity:1"
           d="m 1577.5874,188.24869 13.1007,6.46936 c 2.21,-0.2702 3.9198,-1.48192 5.1755,-3.23468 0,0 8.006,-11.9685 8.7338,-14.23278 0.7751,-2.4114 0,-4.52864 0,-4.52864"
           id="path28"
           sodipodi:nodetypes="ccczc" />
        <path
           style="fill:none;fill-rule:evenodd;stroke:#000000;stroke-width:1.92133;stroke-linecap:butt;stroke-linejoin:miter;stroke-miterlimit:4;stroke-dasharray:none;stroke-opacity:1"
           d="m 1639.3707,202.31972 c -3.5582,0 -22.36,0.3639 -25.3926,0.16171 -3.0476,-0.20321 -14.5719,-4.50942 -15.2032,-6.30771 -0.5805,-1.65363 7.1164,-14.8797 7.1164,-14.8797 0.8145,-1.82744 2.4164,-2.60493 4.5234,-2.70913 l 29.4412,0.93005 c 2.2641,0.1081 3.5548,0.3808 3.3964,3.07297 l -0.4852,16.01187 c -0.2146,2.81545 -0.9474,3.55343 -3.3964,3.71994 z"
           id="path29"
           sodipodi:nodetypes="czzcccccc" />
        <path
           style="fill:none;fill-rule:evenodd;stroke:#000000;stroke-width:1.92133;stroke-linecap:butt;stroke-linejoin:miter;stroke-miterlimit:4;stroke-dasharray:none;stroke-opacity:1"
           d="m 1689.9941,180.16185 c -1.2939,0 -36.8759,0 -36.8759,0 -1.8108,0.35903 -4.1165,-0.074 -3.8816,3.55823 0,0 0,12.93883 0,14.23272 0,1.29389 0.3235,5.17555 2.9112,5.17555 2.5878,0 40.5958,0.16177 40.5958,0.16177"
           id="path30"
           sodipodi:nodetypes="cccssc" />
        <path
           style="fill:none;fill-rule:evenodd;stroke:#000000;stroke-width:1.92133;stroke-linecap:butt;stroke-linejoin:miter;stroke-miterlimit:4;stroke-dasharray:none;stroke-opacity:1"
           d="m 1751.4538,248.73798 c 0,1.94086 0,10.99806 0,10.99806"
           id="path31"
           sodipodi:nodetypes="cc" />
        <path
           style="fill:none;fill-rule:evenodd;stroke:#000000;stroke-width:1.92133;stroke-linecap:butt;stroke-linejoin:round;stroke-miterlimit:4;stroke-dasharray:none;stroke-opacity:1"
           d="m 1751.939,248.89969 -9.3086,0.82271 -3.9538,4.67639 5.9843,5.49897"
           id="path32"
           sodipodi:nodetypes="cccc" />
        <path
           style="fill:none;fill-rule:evenodd;stroke:#000000;stroke-width:1.92133;stroke-linecap:butt;stroke-linejoin:miter;stroke-miterlimit:4;stroke-dasharray:none;stroke-opacity:1"
           d="m 1659.7494,255.36919 -2.2643,-5.33732 c 0.7548,-1.40168 4.313,-3.8262 2.426,-5.17555 -1.8869,-1.34935 -11.3914,-1.89398 -13.7475,0.32349 -2.3452,2.20709 0,2.85727 -1.1322,4.36679"
           id="path33"
           sodipodi:nodetypes="cczzc" />
        <path
           style="fill:none;fill-rule:evenodd;stroke:#000000;stroke-width:1.92133;stroke-linecap:butt;stroke-linejoin:miter;stroke-miterlimit:4;stroke-dasharray:none;stroke-opacity:1"
           d="m 1648.5897,249.22318 2.7494,6.46949"
           id="path34"
           sodipodi:nodetypes="cc" />
        <path
           style="fill:none;fill-rule:evenodd;stroke:#000000;stroke-width:1.28089;stroke-linecap:butt;stroke-linejoin:miter;stroke-miterlimit:4;stroke-dasharray:none;stroke-opacity:1"
           d="m 1699.86,172.07504 c -4.4653,-0.12046 -8.6937,-0.5566 -14.3945,0.9704"
           id="path35"
           sodipodi:nodetypes="cc" />
      </g>
      <path
         style="fill:none;fill-opacity:1;stroke:#000000;stroke-width:3.88;stroke-dasharray:none;stroke-opacity:1"
         d="m 1439.8703,441.48596 c 0,0 75.9567,-56.34863 152.9068,-59.51841 131.7977,-5.4291 147.4986,179.77919 278.0642,176.76768 117.9205,-2.71985 160.184,-176.40011 274.0379,-179.34788 98.0471,-2.53852 140.4425,178.54847 230.9306,177.26292"
         id="path71-2"
         sodipodi:nodetypes="csssc"
         transform="translate(0,-312)" />
      <text
         xml:space="preserve"
         style="font-size:85.3333px;font-family:arial;-inkscape-font-specification:arial;text-align:end;text-anchor:end;fill:#000000;fill-opacity:1;stroke:none;stroke-width:3.77953"
         x="422.37244"
         y="254.3649"
         id="text35"><tspan
           sodipodi:role="line"
           id="tspan35"
           x="422.37241"
           y="254.3649">Obojętny</tspan></text>
    </g>
    <g
       inkscape:groupmode="layer"
       id="layer1"
       inkscape:label="Niestateczny">
      <g
         inkscape:groupmode="layer"
         id="layer2"
         inkscape:label="Samolot"
         transform="rotate(-30,1487.6751,867.7832)">
        <path
           style="fill:none;fill-rule:evenodd;stroke:#000000;stroke-width:1.92133;stroke-linecap:butt;stroke-linejoin:miter;stroke-miterlimit:4;stroke-dasharray:none;stroke-opacity:1"
           d="m 1760.171,192.11862 c -9.6067,0 -19.2133,0 -23.7879,-1.71542 -6.1757,-10.97901 -18.5223,-18.57947 -25.5033,-20.2425 -4.3506,-7.03821 -7.8149,-10.01653 -13.1519,-11.5509 -14.3719,-2.22061 -58.5447,-1.39744 -73.8796,3.43098 -8.7361,2.75064 -15.3247,2.89083 -19.6708,10.17849 -11.6654,5.57217 -13.7237,6.97621 -25.5033,16.01097 -2.2873,0 -106.1305,-10.97895 -107.9603,-10.97895 -1.8299,0 -28.0194,-4.11715 -31.7934,-6.06134 -3.7286,-1.92081 -11.503,-10.31221 -18.0697,-17.72655 -2.1473,-2.42453 -35.7961,-42.31495 -35.7961,-42.31495 l -35.3387,1.02926 24.474,76.05253 c -2.6967,5.87017 -2.4068,9.3187 -0.6862,14.06688 2.3636,3.24031 9.9879,3.62151 14.8674,4.68893 83.2957,17.34537 212.4135,39.76086 260.7517,42.54371"
           id="path7318"
           sodipodi:nodetypes="ccccsccszscccccc" />
        <path
           style="fill:none;fill-rule:evenodd;stroke:#000000;stroke-width:1.92133;stroke-linecap:butt;stroke-linejoin:miter;stroke-miterlimit:4;stroke-dasharray:none;stroke-opacity:1"
           d="m 1751.262,249.0053 c 11.0935,-0.57185 22.1968,-4.27297 29.266,-8.85341 6.9083,-4.47631 10.9505,-14.67248 15.2105,-26.99011 0,0 20.0138,-2.17296 19.8994,-8.80609 -0.1005,-5.8329 -20.1282,-6.51881 -20.1282,-6.51881 0.309,-4.14072 -3.9746,-4.99436 -7.9961,-5.11771 -7.0166,-0.21532 -21.5451,-0.85698 -28.2575,-0.60055"
           id="path7320"
           sodipodi:nodetypes="czczccc" />
        <path
           style="fill:none;fill-rule:evenodd;stroke:#000000;stroke-width:1.92133;stroke-linecap:butt;stroke-linejoin:miter;stroke-miterlimit:4;stroke-dasharray:none;stroke-opacity:1"
           d="m 1743.245,249.64414 c -35.0816,1.88412 -58.0529,1.78191 -85.4744,0.31536"
           id="path8207"
           sodipodi:nodetypes="cc" />
        <path
           style="fill:none;fill-opacity:0.823529;fill-rule:evenodd;stroke:#000000;stroke-width:1.92133;stroke-linecap:round;stroke-linejoin:round;stroke-miterlimit:4;stroke-dashoffset:80;stroke-opacity:1"
           d="m 1603.6926,203.96143 -15.6024,0.11439 c -2.5512,-0.11439 -3.1299,1.74174 -3.0155,3.3816 l 0.2287,24.27386 c 0.1144,2.78356 0.2356,5.09709 3.7017,6.4695 l 14.4588,2.51604 c 4.1523,0.45747 5.0741,0.65991 4.9597,-1.78056 l -1.258,-30.90699 c 0,-3.58411 -1.2649,-4.06784 -3.473,-4.06784 z"
           id="rect9097"
           sodipodi:nodetypes="ccccccccc" />
        <path
           style="fill:none;fill-opacity:0.823529;fill-rule:evenodd;stroke:#000000;stroke-width:1.92133;stroke-linecap:round;stroke-linejoin:round;stroke-miterlimit:4;stroke-dashoffset:80;stroke-opacity:1"
           d="m 1667.7337,255.48395 -35.9592,0.34309 c -2.5512,-0.11438 -6.7638,4.82157 -6.2178,10.47226 0.5614,5.80939 5.1706,4.80659 8.2763,7.8704 16.9422,2.21106 27.48,3.73589 40.9913,2.74475 6.8687,-3.93053 10.7126,-6.31605 10.7923,-9.12843 -0.5913,-6.16387 -12.93,-13.4457 -17.8829,-12.30207 z"
           id="path9100"
           sodipodi:nodetypes="cczcccc" />
        <path
           style="fill:none;fill-opacity:0.823529;fill-rule:evenodd;stroke:#000000;stroke-width:1.92133;stroke-linecap:round;stroke-linejoin:round;stroke-miterlimit:4;stroke-dashoffset:80;stroke-opacity:1"
           d="m 1759.0722,259.58106 -30.1539,0.2873 c -2.1393,-0.0958 -5.6717,4.03665 -5.2139,8.76747 0.4707,4.86371 4.3358,4.02422 6.9401,6.58932 14.207,1.85114 23.0435,3.12773 34.3735,2.29791 5.7598,-3.29066 8.9831,-5.28788 9.05,-7.64247 -0.4959,-5.16049 -10.8426,-11.25699 -14.9958,-10.29953 z"
           id="path9102"
           sodipodi:nodetypes="cczcccc" />
        <path
           style="fill:none;fill-rule:evenodd;stroke:#000000;stroke-width:1.92133;stroke-linecap:butt;stroke-linejoin:miter;stroke-miterlimit:4;stroke-dasharray:none;stroke-opacity:1"
           d="m 1761.4814,277.85045 c -1.527,7.8647 -11.9514,11.41544 -18.4379,-0.64697"
           id="path9104"
           sodipodi:nodetypes="cc" />
        <path
           style="fill:none;fill-rule:evenodd;stroke:#000000;stroke-width:1.92133;stroke-linecap:butt;stroke-linejoin:miter;stroke-miterlimit:4;stroke-dasharray:none;stroke-opacity:1"
           d="m 1671.3943,276.95915 c -1.7681,9.26509 -17.3967,12.15419 -21.3491,-1.08568"
           id="path9991"
           sodipodi:nodetypes="cc" />
        <path
           style="fill:none;fill-rule:evenodd;stroke:#000000;stroke-width:1.28089;stroke-linecap:butt;stroke-linejoin:miter;stroke-miterlimit:4;stroke-dasharray:none;stroke-opacity:1"
           d="m 1374.2851,187.92517 5.1755,17.46752"
           id="path9995" />
        <path
           style="fill:none;fill-rule:evenodd;stroke:#000000;stroke-width:1.28089;stroke-linecap:butt;stroke-linejoin:miter;stroke-miterlimit:4;stroke-dasharray:none;stroke-opacity:1"
           d="m 1370.0799,111.26226 1.9409,7.11634 -3.5582,3.55824 35.9054,65.34142"
           id="path9997" />
        <path
           style="fill:none;fill-rule:evenodd;stroke:#000000;stroke-width:1.28089;stroke-linecap:butt;stroke-linejoin:miter;stroke-miterlimit:4;stroke-dasharray:none;stroke-opacity:1"
           d="m 1404.368,191.80686 0.3235,18.1144"
           id="path9999" />
        <path
           style="fill:none;fill-rule:evenodd;stroke:#000000;stroke-width:1.92133;stroke-linecap:butt;stroke-linejoin:miter;stroke-miterlimit:4;stroke-dasharray:none;stroke-opacity:1"
           d="m 1576.9405,187.92523 -134.7262,-0.32349"
           id="path10886"
           sodipodi:nodetypes="cc" />
        <path
           style="fill:none;fill-rule:evenodd;stroke:#000000;stroke-width:1.92133;stroke-linecap:butt;stroke-linejoin:miter;stroke-miterlimit:4;stroke-dasharray:none;stroke-opacity:1"
           d="m 1444.792,190.02463 c -2.4452,-6.84508 -46.9126,-2.75438 -66.2685,-2.5821 1.6572,0.0403 65.6284,10.81749 66.2685,2.5821 z"
           id="path11773"
           sodipodi:nodetypes="ccc" />
        <path
           style="fill:none;fill-rule:evenodd;stroke:#000000;stroke-width:1.92133;stroke-linecap:butt;stroke-linejoin:miter;stroke-miterlimit:4;stroke-dasharray:none;stroke-opacity:1"
           d="m 1700.0217,171.75156 -3.2348,7.1164 8.4103,61.29802"
           id="path12660"
           sodipodi:nodetypes="ccc" />
        <path
           style="fill:none;fill-rule:evenodd;stroke:#000000;stroke-width:1.92133;stroke-linecap:butt;stroke-linejoin:miter;stroke-miterlimit:4;stroke-dasharray:none;stroke-opacity:1"
           d="m 1684.8185,173.04544 5.1756,6.4695 8.7337,61.45972"
           id="path12662" />
        <path
           style="fill:none;fill-rule:evenodd;stroke:#000000;stroke-width:1.92133;stroke-linecap:butt;stroke-linejoin:miter;stroke-miterlimit:4;stroke-dasharray:none;stroke-opacity:1"
           d="m 1704.5503,237.73991 c 1.9408,0.16178 8.1677,2.10258 7.7633,4.52864 -0.4043,2.42606 -2.9112,3.88166 -8.0868,3.88166 -5.1755,0 -11.0875,-0.44396 -12.6154,-3.88166 -1.2939,-2.91133 5.2564,-2.58784 6.4695,-3.88172"
           id="path12664"
           sodipodi:nodetypes="czzzz" />
        <path
           style="fill:none;fill-rule:evenodd;stroke:#000000;stroke-width:1.92133;stroke-linecap:butt;stroke-linejoin:miter;stroke-miterlimit:4;stroke-dasharray:none;stroke-opacity:1"
           d="m 1795.446,198.59978 c 0.647,1.61731 0,14.87972 0,14.87972"
           id="path12666" />
        <path
           style="fill:none;fill-rule:evenodd;stroke:#000000;stroke-width:1.92133;stroke-linecap:butt;stroke-linejoin:miter;stroke-miterlimit:4;stroke-dasharray:none;stroke-opacity:1"
           d="m 1787.0357,193.42417 -1.2938,42.37488"
           id="path12668" />
        <path
           style="fill:none;fill-rule:evenodd;stroke:#000000;stroke-width:1.92133;stroke-linecap:butt;stroke-linejoin:miter;stroke-miterlimit:4;stroke-dasharray:none;stroke-opacity:1"
           d="m 1786.5505,205.71612 c -1.9408,0 -50.1382,3.07303 -50.1382,3.07303"
           id="path12670"
           sodipodi:nodetypes="cc" />
        <path
           style="fill:none;fill-rule:evenodd;stroke:#000000;stroke-width:1.92133;stroke-linecap:butt;stroke-linejoin:miter;stroke-miterlimit:4;stroke-dasharray:none;stroke-opacity:1"
           d="m 1736.5741,190.35119 -0.3235,34.4498 6.4695,7.43989 -0.647,16.82059"
           id="path12672"
           sodipodi:nodetypes="cccc" />
        <path
           style="fill:none;fill-rule:evenodd;stroke:#000000;stroke-width:1.92133;stroke-linecap:butt;stroke-linejoin:miter;stroke-miterlimit:4;stroke-dasharray:none;stroke-opacity:1"
           d="m 1736.0889,189.3808 c -5.6488,7.36906 -14.1882,14.37582 -33.4794,12.45366 l -5.1756,-23.28998"
           id="path12674"
           sodipodi:nodetypes="ccc" />
        <path
           style="fill:none;fill-rule:evenodd;stroke:#000000;stroke-width:1.92133;stroke-linecap:butt;stroke-linejoin:miter;stroke-miterlimit:4;stroke-dasharray:none;stroke-opacity:1"
           d="m 1711.3432,170.61945 c -4.0549,3.74703 -8.4566,5.0666 -12.9389,5.82245"
           id="path12676"
           sodipodi:nodetypes="cc" />
        <path
           style="fill:none;fill-rule:evenodd;stroke:#000000;stroke-width:1.92133;stroke-linecap:butt;stroke-linejoin:miter;stroke-miterlimit:4;stroke-dasharray:none;stroke-opacity:1"
           d="m 1696.14,239.0338 c 0,0 -36.6197,0.29653 -44.3157,-0.32349 -2.6615,-0.47264 -5.8476,-1.7575 -6.1459,-8.41029 -0.5795,-8.65289 0.6469,-54.66674 0.6469,-54.66674"
           id="path12678"
           sodipodi:nodetypes="cccc" />
        <path
           style="fill:none;fill-rule:evenodd;stroke:#000000;stroke-width:1.92133;stroke-linecap:butt;stroke-linejoin:miter;stroke-miterlimit:4;stroke-dasharray:none;stroke-opacity:1"
           d="m 1688.0532,176.76539 -83.2941,-3.39646"
           id="path12680"
           sodipodi:nodetypes="cc" />
        <path
           style="fill:none;fill-rule:evenodd;stroke:#000000;stroke-width:1.92133;stroke-linecap:butt;stroke-linejoin:miter;stroke-miterlimit:4;stroke-dasharray:none;stroke-opacity:1"
           d="m 1629.1813,160.59178 c 0,0 1.2883,4.73652 3.073,5.49903 5.0138,2.14215 62.9153,2.10751 62.9153,0.4852 3.9943,-0.34597 5.814,-1.92453 6.7929,-6.46943"
           id="path12682"
           sodipodi:nodetypes="cscc" />
        <path
           style="fill:none;fill-rule:evenodd;stroke:#000000;stroke-width:1.92133;stroke-linecap:butt;stroke-linejoin:miter;stroke-miterlimit:4;stroke-dasharray:none;stroke-opacity:1"
           d="m 1632.9012,166.25252 -10.0276,7.9251"
           id="path12684"
           sodipodi:nodetypes="cc" />
        <path
           style="fill:none;fill-rule:evenodd;stroke:#000000;stroke-width:1.92133;stroke-linecap:butt;stroke-linejoin:miter;stroke-miterlimit:4;stroke-dasharray:none;stroke-opacity:1"
           d="m 1577.5874,188.24869 13.1007,6.46936 c 2.21,-0.2702 3.9198,-1.48192 5.1755,-3.23468 0,0 8.006,-11.9685 8.7338,-14.23278 0.7751,-2.4114 0,-4.52864 0,-4.52864"
           id="path12686"
           sodipodi:nodetypes="ccczc" />
        <path
           style="fill:none;fill-rule:evenodd;stroke:#000000;stroke-width:1.92133;stroke-linecap:butt;stroke-linejoin:miter;stroke-miterlimit:4;stroke-dasharray:none;stroke-opacity:1"
           d="m 1639.3707,202.31972 c -3.5582,0 -22.36,0.3639 -25.3926,0.16171 -3.0476,-0.20321 -14.5719,-4.50942 -15.2032,-6.30771 -0.5805,-1.65363 7.1164,-14.8797 7.1164,-14.8797 0.8145,-1.82744 2.4164,-2.60493 4.5234,-2.70913 l 29.4412,0.93005 c 2.2641,0.1081 3.5548,0.3808 3.3964,3.07297 l -0.4852,16.01187 c -0.2146,2.81545 -0.9474,3.55343 -3.3964,3.71994 z"
           id="path12688"
           sodipodi:nodetypes="czzcccccc" />
        <path
           style="fill:none;fill-rule:evenodd;stroke:#000000;stroke-width:1.92133;stroke-linecap:butt;stroke-linejoin:miter;stroke-miterlimit:4;stroke-dasharray:none;stroke-opacity:1"
           d="m 1689.9941,180.16185 c -1.2939,0 -36.8759,0 -36.8759,0 -1.8108,0.35903 -4.1165,-0.074 -3.8816,3.55823 0,0 0,12.93883 0,14.23272 0,1.29389 0.3235,5.17555 2.9112,5.17555 2.5878,0 40.5958,0.16177 40.5958,0.16177"
           id="path12690"
           sodipodi:nodetypes="cccssc" />
        <path
           style="fill:none;fill-rule:evenodd;stroke:#000000;stroke-width:1.92133;stroke-linecap:butt;stroke-linejoin:miter;stroke-miterlimit:4;stroke-dasharray:none;stroke-opacity:1"
           d="m 1751.4538,248.73798 c 0,1.94086 0,10.99806 0,10.99806"
           id="path12692"
           sodipodi:nodetypes="cc" />
        <path
           style="fill:none;fill-rule:evenodd;stroke:#000000;stroke-width:1.92133;stroke-linecap:butt;stroke-linejoin:round;stroke-miterlimit:4;stroke-dasharray:none;stroke-opacity:1"
           d="m 1751.939,248.89969 -9.3086,0.82271 -3.9538,4.67639 5.9843,5.49897"
           id="path12694"
           sodipodi:nodetypes="cccc" />
        <path
           style="fill:none;fill-rule:evenodd;stroke:#000000;stroke-width:1.92133;stroke-linecap:butt;stroke-linejoin:miter;stroke-miterlimit:4;stroke-dasharray:none;stroke-opacity:1"
           d="m 1659.7494,255.36919 -2.2643,-5.33732 c 0.7548,-1.40168 4.313,-3.8262 2.426,-5.17555 -1.8869,-1.34935 -11.3914,-1.89398 -13.7475,0.32349 -2.3452,2.20709 0,2.85727 -1.1322,4.36679"
           id="path12696"
           sodipodi:nodetypes="cczzc" />
        <path
           style="fill:none;fill-rule:evenodd;stroke:#000000;stroke-width:1.92133;stroke-linecap:butt;stroke-linejoin:miter;stroke-miterlimit:4;stroke-dasharray:none;stroke-opacity:1"
           d="m 1648.5897,249.22318 2.7494,6.46949"
           id="path12698"
           sodipodi:nodetypes="cc" />
        <path
           style="fill:none;fill-rule:evenodd;stroke:#000000;stroke-width:1.28089;stroke-linecap:butt;stroke-linejoin:miter;stroke-miterlimit:4;stroke-dasharray:none;stroke-opacity:1"
           d="m 1699.86,172.07504 c -4.4653,-0.12046 -8.6937,-0.5566 -14.3945,0.9704"
           id="path13585"
           sodipodi:nodetypes="cc" />
      </g>
      <text
         xml:space="preserve"
         style="font-size:85.3333px;font-family:arial;-inkscape-font-specification:arial;text-align:end;text-anchor:end;fill:#000000;fill-opacity:1;stroke:none;stroke-width:3.77953"
         x="566.37244"
         y="254.3649"
         id="text1"><tspan
           sodipodi:role="line"
           id="tspan1"
           x="566.37244"
           y="254.3649">Niestateczny</tspan></text>
      <path
         style="fill:none;fill-opacity:1;stroke:#000000;stroke-width:3.88;stroke-dasharray:none;stroke-opacity:1"
         d="m 1439.9822,-182.6234 c 0,0 75.9567,-56.34863 152.9068,-59.51841 131.7977,-5.4291 286.5543,310.25558 417.1199,307.24407 117.9205,-2.71985 275.2231,-450.80432 389.077,-453.75209"
         id="path71-2-2"
         sodipodi:nodetypes="cssc"
         transform="translate(0,312)" />
    </g>
  </g>
</svg>
